<?xml version="1.0" encoding="UTF-8" standalone="no" ?>
<!DOCTYPE svg PUBLIC "-//W3C//DTD SVG 1.1//EN" "http://www.w3.org/Graphics/SVG/1.1/DTD/svg11.dtd">
<svg xmlns="http://www.w3.org/2000/svg" xmlns:xlink="http://www.w3.org/1999/xlink" version="1.1" width="1080" height="1080" viewBox="0 0 1080 1080" xml:space="preserve">
<desc>Created with Fabric.js 5.2.4</desc>
<defs>
</defs>
<rect x="0" y="0" width="100%" height="100%" fill="transparent"></rect>
<g transform="matrix(1 0 0 1 540 540)" id="00a2f1ce-fc5e-44fe-b3cc-5864f716b014"  >
<rect style="stroke: none; stroke-width: 1; stroke-dasharray: none; stroke-linecap: butt; stroke-dashoffset: 0; stroke-linejoin: miter; stroke-miterlimit: 4; fill: rgb(255,255,255); fill-rule: nonzero; opacity: 1; visibility: hidden;" vector-effect="non-scaling-stroke"  x="-540" y="-540" rx="0" ry="0" width="1080" height="1080" />
</g>
<g transform="matrix(1 0 0 1 540 540)" id="331220cf-682e-4c98-904e-cb0040942da5"  >
</g>
<g transform="matrix(9.87 0 0 9.87 2080.77 560.71)"  >
<g style="" vector-effect="non-scaling-stroke"   >
		<g transform="matrix(1 0 0 1 60.79 8.14)"  >
<path style="stroke: none; stroke-width: 1; stroke-dasharray: none; stroke-linecap: butt; stroke-dashoffset: 0; stroke-linejoin: miter; stroke-miterlimit: 4; fill: rgb(0,0,0); fill-rule: nonzero; opacity: 1;" vector-effect="non-scaling-stroke"  transform=" translate(-313.7, -100.56)" d="M 197.988 121.802 C 193.926 121.802 190.157 121.08 186.683 119.637 C 183.263 118.141 180.27 116.083 177.704 113.464 C 175.139 110.791 173.161 107.718 171.771 104.244 C 170.382 100.717 169.687 96.9485 169.687 92.94 C 169.687 88.9314 170.382 85.19 171.771 81.7159 C 173.161 78.1884 175.139 75.1151 177.704 72.4962 C 180.27 69.8773 183.263 67.8195 186.683 66.323 C 190.157 64.8265 193.926 64.0782 197.988 64.0782 C 202.531 64.0782 206.459 64.8265 209.773 66.323 C 213.087 67.8195 216.026 69.8506 218.592 72.416 L 212.338 78.6694 C 210.681 76.8522 208.65 75.4358 206.245 74.4203 C 203.894 73.4048 201.141 72.8971 197.988 72.8971 C 195.208 72.8971 192.67 73.3781 190.371 74.3402 C 188.073 75.3022 186.069 76.6919 184.358 78.5091 C 182.702 80.2729 181.419 82.384 180.51 84.8426 C 179.602 87.3012 179.147 90.0003 179.147 92.94 C 179.147 95.8796 179.602 98.5787 180.51 101.037 C 181.419 103.496 182.702 105.634 184.358 107.451 C 186.069 109.215 188.073 110.578 190.371 111.54 C 192.67 112.502 195.208 112.983 197.988 112.983 C 201.408 112.983 204.294 112.475 206.646 111.46 C 209.051 110.391 211.082 108.948 212.739 107.13 L 218.992 113.384 C 216.427 116.003 213.407 118.06 209.933 119.557 C 206.459 121.053 202.477 121.802 197.988 121.802 Z M 252.393 121 L 252.393 98.7925 C 252.393 96.227 251.565 94.1158 249.908 92.4589 C 248.305 90.802 246.22 89.9736 243.655 89.9736 C 241.944 89.9736 240.421 90.3477 239.085 91.096 C 237.749 91.8443 236.706 92.8865 235.958 94.2227 C 235.21 95.5589 234.836 97.0822 234.836 98.7925 L 231.388 96.8684 C 231.388 93.9287 232.03 91.3365 233.313 89.0917 C 234.595 86.7935 236.359 85.003 238.604 83.7202 C 240.902 82.384 243.468 81.7159 246.3 81.7159 C 249.186 81.7159 251.752 82.3573 253.997 83.6401 C 256.242 84.9228 258.005 86.7133 259.288 89.0116 C 260.571 91.2564 261.212 93.8753 261.212 96.8684 L 261.212 121 L 252.393 121 Z M 226.017 121 L 226.017 63.2765 L 234.836 63.2765 L 234.836 121 L 226.017 121 Z M 270.254 121 L 270.254 82.5177 L 279.073 82.5177 L 279.073 121 L 270.254 121 Z M 274.663 75.4626 C 273.167 75.4626 271.911 74.9548 270.895 73.9393 C 269.933 72.9238 269.452 71.6678 269.452 70.1712 C 269.452 68.6747 269.933 67.4187 270.895 66.4032 C 271.911 65.3877 273.167 64.8799 274.663 64.8799 C 276.213 64.8799 277.47 65.3877 278.432 66.4032 C 279.394 67.4187 279.875 68.6747 279.875 70.1712 C 279.875 71.6678 279.394 72.9238 278.432 73.9393 C 277.47 74.9548 276.213 75.4626 274.663 75.4626 Z M 306.682 121.802 C 302.887 121.802 299.44 120.92 296.34 119.156 C 293.293 117.392 290.888 114.987 289.124 111.941 C 287.361 108.894 286.479 105.5 286.479 101.759 C 286.479 97.964 287.361 94.5701 289.124 91.577 C 290.888 88.5305 293.293 86.1254 296.34 84.3616 C 299.44 82.5978 302.887 81.7159 306.682 81.7159 C 309.675 81.7159 312.454 82.3039 315.02 83.4797 C 317.639 84.6021 319.857 86.2323 321.674 88.3702 L 315.902 94.2227 C 314.779 92.8865 313.416 91.8977 311.813 91.2564 C 310.263 90.5615 308.553 90.2141 306.682 90.2141 C 304.491 90.2141 302.54 90.7219 300.829 91.7374 C 299.173 92.6994 297.863 94.0356 296.901 95.746 C 295.992 97.4563 295.538 99.4606 295.538 101.759 C 295.538 104.004 295.992 106.008 296.901 107.772 C 297.863 109.482 299.173 110.845 300.829 111.86 C 302.54 112.823 304.491 113.304 306.682 113.304 C 308.553 113.304 310.263 112.983 311.813 112.341 C 313.416 111.647 314.779 110.631 315.902 109.295 L 321.674 115.147 C 319.857 117.285 317.639 118.942 315.02 120.118 C 312.454 121.241 309.675 121.802 306.682 121.802 Z M 343.364 121.802 C 339.89 121.802 336.736 120.92 333.903 119.156 C 331.124 117.392 328.906 115.014 327.249 112.021 C 325.646 108.974 324.844 105.58 324.844 101.839 C 324.844 98.0442 325.646 94.6503 327.249 91.6572 C 328.906 88.6107 331.124 86.2055 333.903 84.4418 C 336.736 82.6246 339.89 81.7159 343.364 81.7159 C 346.303 81.7159 348.895 82.3573 351.14 83.6401 C 353.439 84.8694 355.256 86.5797 356.592 88.771 C 357.928 90.9624 358.596 93.4477 358.596 96.227 L 358.596 107.291 C 358.596 110.07 357.928 112.555 356.592 114.747 C 355.309 116.938 353.519 118.675 351.22 119.958 C 348.922 121.187 346.303 121.802 343.364 121.802 Z M 344.807 113.464 C 348.067 113.464 350.686 112.368 352.664 110.177 C 354.695 107.985 355.71 105.179 355.71 101.759 C 355.71 99.4606 355.256 97.4296 354.347 95.6658 C 353.439 93.902 352.156 92.5391 350.499 91.577 C 348.895 90.5615 346.998 90.0538 344.807 90.0538 C 342.669 90.0538 340.771 90.5615 339.115 91.577 C 337.511 92.5391 336.228 93.902 335.266 95.6658 C 334.358 97.4296 333.903 99.4606 333.903 101.759 C 333.903 104.057 334.358 106.088 335.266 107.852 C 336.228 109.616 337.511 111.005 339.115 112.021 C 340.771 112.983 342.669 113.464 344.807 113.464 Z M 355.149 121 L 355.149 110.658 L 356.672 101.278 L 355.149 91.9779 L 355.149 82.5177 L 363.968 82.5177 L 363.968 121 L 355.149 121 Z M 389.789 137.836 C 385.727 137.836 382.173 137.088 379.126 135.591 C 376.08 134.148 373.621 132.09 371.751 129.418 L 377.523 123.646 C 379.073 125.57 380.837 127.013 382.814 127.975 C 384.792 128.937 387.17 129.418 389.95 129.418 C 393.424 129.418 396.176 128.509 398.207 126.692 C 400.238 124.928 401.254 122.497 401.254 119.397 L 401.254 109.936 L 402.777 101.438 L 401.254 92.8598 L 401.254 82.5177 L 410.073 82.5177 L 410.073 119.397 C 410.073 123.084 409.217 126.291 407.507 129.017 C 405.797 131.796 403.418 133.961 400.372 135.511 C 397.325 137.061 393.798 137.836 389.789 137.836 Z M 389.388 120.198 C 385.968 120.198 382.868 119.37 380.088 117.713 C 377.363 116.003 375.198 113.678 373.595 110.738 C 372.045 107.798 371.27 104.511 371.27 100.877 C 371.27 97.2425 372.045 93.9822 373.595 91.096 C 375.198 88.2098 377.363 85.9383 380.088 84.2814 C 382.868 82.5711 385.968 81.7159 389.388 81.7159 C 392.435 81.7159 395.107 82.3306 397.406 83.5599 C 399.704 84.7892 401.494 86.4995 402.777 88.6909 C 404.06 90.8288 404.701 93.3408 404.701 96.227 L 404.701 105.687 C 404.701 108.52 404.033 111.032 402.697 113.223 C 401.414 115.415 399.624 117.125 397.325 118.354 C 395.027 119.584 392.381 120.198 389.388 120.198 Z M 391.152 111.86 C 393.29 111.86 395.161 111.406 396.764 110.498 C 398.368 109.589 399.597 108.333 400.452 106.729 C 401.361 105.073 401.815 103.148 401.815 100.957 C 401.815 98.7658 401.361 96.8684 400.452 95.2649 C 399.597 93.6081 398.368 92.3253 396.764 91.4167 C 395.161 90.5081 393.29 90.0538 391.152 90.0538 C 389.014 90.0538 387.117 90.5081 385.46 91.4167 C 383.857 92.3253 382.6 93.6081 381.692 95.2649 C 380.783 96.8684 380.329 98.7658 380.329 100.957 C 380.329 103.095 380.783 104.992 381.692 106.649 C 382.6 108.306 383.857 109.589 385.46 110.498 C 387.117 111.406 389.014 111.86 391.152 111.86 Z M 437.507 121.802 C 433.766 121.802 430.372 120.92 427.325 119.156 C 424.279 117.339 421.847 114.907 420.03 111.86 C 418.266 108.814 417.384 105.42 417.384 101.679 C 417.384 97.9373 418.266 94.5701 420.03 91.577 C 421.847 88.584 424.279 86.2055 427.325 84.4418 C 430.372 82.6246 433.766 81.7159 437.507 81.7159 C 441.302 81.7159 444.722 82.5978 447.769 84.3616 C 450.815 86.1254 453.221 88.5305 454.984 91.577 C 456.802 94.5701 457.71 97.9373 457.71 101.679 C 457.71 105.42 456.802 108.814 454.984 111.86 C 453.221 114.907 450.815 117.339 447.769 119.156 C 444.722 120.92 441.302 121.802 437.507 121.802 Z M 437.507 113.304 C 439.698 113.304 441.622 112.823 443.279 111.86 C 444.99 110.845 446.299 109.455 447.208 107.692 C 448.17 105.928 448.651 103.923 448.651 101.679 C 448.651 99.4339 448.17 97.4563 447.208 95.746 C 446.246 94.0356 444.936 92.6994 443.279 91.7374 C 441.622 90.7219 439.698 90.2141 437.507 90.2141 C 435.369 90.2141 433.445 90.7219 431.735 91.7374 C 430.078 92.6994 428.768 94.0356 427.806 95.746 C 426.898 97.4563 426.443 99.4339 426.443 101.679 C 426.443 103.923 426.898 105.928 427.806 107.692 C 428.768 109.455 430.078 110.845 431.735 111.86 C 433.445 112.823 435.369 113.304 437.507 113.304 Z" stroke-linecap="round" />
</g>
		<g transform="matrix(1 0 0 1 -141.39 14.52)"  >
<path style="stroke: none; stroke-width: 1; stroke-dasharray: none; stroke-linecap: butt; stroke-dashoffset: 0; stroke-linejoin: miter; stroke-miterlimit: 4; fill: rgb(0,0,0); fill-rule: nonzero; opacity: 1;" vector-effect="non-scaling-stroke"  transform=" translate(-111.52, -106.94)" d="M 83.9169 85.8755 L 90.4606 79.3318 C 91.8158 77.9766 94.0131 77.9766 95.3684 79.3318 L 139.129 123.093 C 140.485 124.448 140.485 126.645 139.129 128.001 L 132.586 134.544 C 131.23 135.9 129.033 135.9 127.678 134.544 L 83.9169 90.7833 C 82.5616 89.4281 82.5616 87.2308 83.9169 85.8755 Z" stroke-linecap="round" />
</g>
		<g transform="matrix(1 0 0 1 -141.39 14.52)"  >
<linearGradient id="SVGID_paint0_linear_1113_1889_14" gradientUnits="userSpaceOnUse" gradientTransform="matrix(1 0 0 1 0 0)"  x1="92.5903" y1="82.8178" x2="87.7645" y2="97.6988">
<stop offset="0%" style="stop-color:rgb(255,255,255);stop-opacity: 0.26"/>
<stop offset="100%" style="stop-color:rgb(30,38,49);stop-opacity: 0"/>
</linearGradient>
<path style="stroke: url(#SVGID_paint0_linear_1113_1889_14); stroke-width: 2.31355; stroke-dasharray: none; stroke-linecap: butt; stroke-dashoffset: 0; stroke-linejoin: miter; stroke-miterlimit: 4; fill: none; fill-rule: nonzero; opacity: 1;" vector-effect="non-scaling-stroke"  transform=" translate(-111.52, -106.94)" d="M 91.2786 80.1498 L 84.7349 86.6935 C 83.8314 87.597 83.8314 89.0618 84.7349 89.9653 L 128.496 133.726 C 129.399 134.63 130.864 134.63 131.768 133.726 L 138.311 127.183 C 139.215 126.279 139.215 124.814 138.311 123.911 L 94.5504 80.1498 C 93.6469 79.2463 92.1821 79.2463 91.2786 80.1498 Z" stroke-linecap="round" />
</g>
		<g transform="matrix(1 0 0 1 -134.35 21.56)"  >
<path style="stroke: none; stroke-width: 1; stroke-dasharray: none; stroke-linecap: butt; stroke-dashoffset: 0; stroke-linejoin: miter; stroke-miterlimit: 4; fill: rgb(0,0,0); fill-rule: nonzero; opacity: 1;" vector-effect="non-scaling-stroke"  transform=" translate(-118.56, -113.98)" d="M 97.9919 99.9546 L 104.536 93.4109 C 105.891 92.0557 108.088 92.0557 109.443 93.4109 L 139.127 123.095 C 140.482 124.45 140.482 126.647 139.127 128.002 L 132.583 134.546 C 131.228 135.901 129.031 135.901 127.676 134.546 L 97.9919 104.862 C 96.6367 103.507 96.6367 101.31 97.9919 99.9546 Z" stroke-linecap="round" />
</g>
		<g transform="matrix(1 0 0 1 -134.35 21.56)"  >
<linearGradient id="SVGID_paint1_linear_1113_1889_15" gradientUnits="userSpaceOnUse" gradientTransform="matrix(1 0 0 1 0 0)"  x1="105.853" y1="96.0847" x2="103.541" y2="110.163">
<stop offset="0%" style="stop-color:rgb(255,255,255);stop-opacity: 0.26"/>
<stop offset="100%" style="stop-color:rgb(30,38,49);stop-opacity: 0"/>
</linearGradient>
<path style="stroke: url(#SVGID_paint1_linear_1113_1889_15); stroke-width: 2.31355; stroke-dasharray: none; stroke-linecap: butt; stroke-dashoffset: 0; stroke-linejoin: miter; stroke-miterlimit: 4; fill: none; fill-rule: nonzero; opacity: 1;" vector-effect="non-scaling-stroke"  transform=" translate(-118.56, -113.98)" d="M 105.354 94.2289 L 98.8099 100.773 C 97.9064 101.676 97.9064 103.141 98.8099 104.044 L 128.494 133.728 C 129.397 134.632 130.862 134.632 131.765 133.728 L 138.309 127.184 C 139.213 126.281 139.213 124.816 138.309 123.913 L 108.625 94.2289 C 107.722 93.3254 106.257 93.3254 105.354 94.2289 Z" stroke-linecap="round" />
</g>
		<g transform="matrix(1 0 0 1 -190.76 -21.13)"  >
<path style="stroke: none; stroke-width: 1; stroke-dasharray: none; stroke-linecap: butt; stroke-dashoffset: 0; stroke-linejoin: miter; stroke-miterlimit: 4; fill: rgb(0,0,0); fill-rule: evenodd; opacity: 1;" vector-effect="non-scaling-stroke"  transform=" translate(-62.15, -71.29)" d="M 62.1462 59.145 C 59.9101 59.145 58.0974 60.9577 58.0974 63.1937 C 58.0974 65.4335 56.2885 67.2424 54.0487 67.2424 C 51.8127 67.2424 50 69.0551 50 71.2912 C 50 73.5272 51.8127 75.3399 54.0487 75.3399 C 56.2885 75.3399 58.0974 77.1489 58.0974 79.3886 C 58.0974 81.6246 59.9101 83.4373 62.1462 83.4373 C 64.3822 83.4373 66.1949 81.6246 66.1949 79.3886 C 66.1949 77.1489 68.0038 75.3399 70.2436 75.3399 C 72.4796 75.3399 74.2923 73.5272 74.2923 71.2912 C 74.2923 69.0551 72.4796 67.2424 70.2436 67.2424 C 68.0038 67.2424 66.1949 65.4335 66.1949 63.1937 C 66.1949 60.9577 64.3822 59.145 62.1462 59.145 Z" stroke-linecap="round" />
</g>
		<g transform="matrix(1 0 0 1 -190.76 -21.13)"  >
<linearGradient id="SVGID_paint2_linear_1113_1889_16" gradientUnits="userSpaceOnUse" gradientTransform="matrix(1 0 0 1 0 0)"  x1="67.6483" y1="60.5465" x2="63.0286" y2="70.5645">
<stop offset="0%" style="stop-color:rgb(255,255,255);stop-opacity: 0.26"/>
<stop offset="100%" style="stop-color:rgb(30,38,49);stop-opacity: 0"/>
</linearGradient>
<path style="stroke: url(#SVGID_paint2_linear_1113_1889_16); stroke-width: 4.78022; stroke-dasharray: none; stroke-linecap: butt; stroke-dashoffset: 0; stroke-linejoin: miter; stroke-miterlimit: 4; fill: none; fill-rule: evenodd; opacity: 1;" vector-effect="non-scaling-stroke"  transform=" translate(-62.15, -71.29)" d="M 62.1462 59.145 C 59.9101 59.145 58.0974 60.9577 58.0974 63.1937 C 58.0974 65.4335 56.2885 67.2424 54.0487 67.2424 C 51.8127 67.2424 50 69.0551 50 71.2912 C 50 73.5272 51.8127 75.3399 54.0487 75.3399 C 56.2885 75.3399 58.0974 77.1489 58.0974 79.3886 C 58.0974 81.6246 59.9101 83.4373 62.1462 83.4373 C 64.3822 83.4373 66.1949 81.6246 66.1949 79.3886 C 66.1949 77.1489 68.0038 75.3399 70.2436 75.3399 C 72.4796 75.3399 74.2923 73.5272 74.2923 71.2912 C 74.2923 69.0551 72.4796 67.2424 70.2436 67.2424 C 68.0038 67.2424 66.1949 65.4335 66.1949 63.1937 C 66.1949 60.9577 64.3822 59.145 62.1462 59.145 Z" stroke-linecap="round" />
</g>
		<g transform="matrix(1 0 0 1 -130.03 -25.17)"  >
<path style="stroke: none; stroke-width: 1; stroke-dasharray: none; stroke-linecap: butt; stroke-dashoffset: 0; stroke-linejoin: miter; stroke-miterlimit: 4; fill: rgb(0,0,0); fill-rule: evenodd; opacity: 1;" vector-effect="non-scaling-stroke"  transform=" translate(-122.88, -67.24)" d="M 122.877 47 C 120.641 47 118.828 48.8127 118.828 51.0487 C 118.828 57.7641 113.397 63.1949 106.682 63.1949 C 104.446 63.1949 102.633 65.0075 102.633 67.2436 C 102.633 69.4796 104.446 71.2923 106.682 71.2923 C 113.397 71.2923 118.828 76.723 118.828 83.4384 C 118.828 85.6745 120.641 87.4871 122.877 87.4871 C 125.113 87.4871 126.925 85.6745 126.925 83.4384 C 126.925 76.723 132.356 71.2923 139.071 71.2923 C 141.307 71.2923 143.12 69.4796 143.12 67.2436 C 143.12 65.0075 141.307 63.1949 139.071 63.1949 C 132.356 63.1949 126.925 57.7641 126.925 51.0487 C 126.925 48.8127 125.113 47 122.877 47 Z" stroke-linecap="round" />
</g>
		<g transform="matrix(1 0 0 1 -130.03 -25.17)"  >
<linearGradient id="SVGID_paint3_linear_1113_1889_17" gradientUnits="userSpaceOnUse" gradientTransform="matrix(1 0 0 1 0 0)"  x1="132.047" y1="49.3358" x2="124.347" y2="66.0324">
<stop offset="0%" style="stop-color:rgb(255,255,255);stop-opacity: 0.26"/>
<stop offset="100%" style="stop-color:rgb(30,38,49);stop-opacity: 0"/>
</linearGradient>
<path style="stroke: url(#SVGID_paint3_linear_1113_1889_17); stroke-width: 2.31355; stroke-dasharray: none; stroke-linecap: butt; stroke-dashoffset: 0; stroke-linejoin: miter; stroke-miterlimit: 4; fill: none; fill-rule: nonzero; opacity: 1;" vector-effect="non-scaling-stroke"  transform=" translate(-122.88, -67.24)" d="M 122.877 48.1568 C 121.279 48.1568 119.985 49.4515 119.985 51.0487 C 119.985 58.403 114.036 64.3516 106.682 64.3516 C 105.085 64.3516 103.79 65.6464 103.79 67.2436 C 103.79 68.8407 105.085 70.1355 106.682 70.1355 C 114.036 70.1355 119.985 76.0841 119.985 83.4384 C 119.985 85.0356 121.279 86.3304 122.877 86.3304 C 124.474 86.3304 125.768 85.0356 125.768 83.4384 C 125.768 76.0841 131.717 70.1355 139.071 70.1355 C 140.669 70.1355 141.963 68.8407 141.963 67.2436 C 141.963 65.6464 140.669 64.3516 139.071 64.3516 C 131.717 64.3516 125.768 58.403 125.768 51.0487 C 125.768 49.4515 124.474 48.1568 122.877 48.1568 Z" stroke-linecap="round" />
</g>
		<g transform="matrix(1 0 0 1 -186.72 15.31)"  >
<path style="stroke: none; stroke-width: 1; stroke-dasharray: none; stroke-linecap: butt; stroke-dashoffset: 0; stroke-linejoin: miter; stroke-miterlimit: 4; fill: rgb(0,0,0); fill-rule: evenodd; opacity: 1;" vector-effect="non-scaling-stroke"  transform=" translate(-66.19, -107.73)" d="M 74.2923 107.731 C 74.2923 103.259 70.667 99.6338 66.1949 99.6338 C 61.7228 99.6338 58.0974 103.259 58.0974 107.731 C 58.0974 112.203 61.7228 115.829 66.1949 115.829 C 70.667 115.829 74.2923 112.203 74.2923 107.731 Z" stroke-linecap="round" />
</g>
		<g transform="matrix(1 0 0 1 -186.72 15.31)"  >
<linearGradient id="SVGID_paint4_linear_1113_1889_18" gradientUnits="userSpaceOnUse" gradientTransform="matrix(1 0 0 1 0 0)"  x1="69.8629" y1="100.568" x2="66.7831" y2="107.247">
<stop offset="0%" style="stop-color:rgb(255,255,255);stop-opacity: 0.26"/>
<stop offset="100%" style="stop-color:rgb(30,38,49);stop-opacity: 0"/>
</linearGradient>
<path style="stroke: url(#SVGID_paint4_linear_1113_1889_18); stroke-width: 2.31355; stroke-dasharray: none; stroke-linecap: butt; stroke-dashoffset: 0; stroke-linejoin: miter; stroke-miterlimit: 4; fill: none; fill-rule: nonzero; opacity: 1;" vector-effect="non-scaling-stroke"  transform=" translate(-66.19, -107.73)" d="M 73.1355 107.731 C 73.1355 103.898 70.0281 100.791 66.1949 100.791 C 62.3617 100.791 59.2542 103.898 59.2542 107.731 C 59.2542 111.564 62.3617 114.672 66.1949 114.672 C 70.0281 114.672 73.1355 111.564 73.1355 107.731 Z" stroke-linecap="round" />
</g>
</g>
</g>
</svg>